<?xml version="1.0" encoding="UTF-8" standalone="no"?>
<svg
   xmlns:dc="http://purl.org/dc/elements/1.1/"
   xmlns:cc="http://creativecommons.org/ns#"
   xmlns:rdf="http://www.w3.org/1999/02/22-rdf-syntax-ns#"
   xmlns:svg="http://www.w3.org/2000/svg"
   xmlns="http://www.w3.org/2000/svg"
   xmlns:sodipodi="http://sodipodi.sourceforge.net/DTD/sodipodi-0.dtd"
   xmlns:inkscape="http://www.inkscape.org/namespaces/inkscape"
   enable-background="new 0 0 1000 1000"
   height="100mm"
   viewBox="0 0 377.95275 377.95275"
   width="100mm"
   version="1.1"
   id="svg32"
   sodipodi:docname="arena-league.svg"
   inkscape:version="0.92.2 5c3e80d, 2017-08-06">
  <metadata
     id="metadata38">
    <rdf:RDF>
      <cc:Work
         rdf:about="">
        <dc:format>image/svg+xml</dc:format>
        <dc:type
           rdf:resource="http://purl.org/dc/dcmitype/StillImage" />
      </cc:Work>
    </rdf:RDF>
  </metadata>
  <defs
     id="defs36" />
  <sodipodi:namedview
     pagecolor="#ffffff"
     bordercolor="#666666"
     borderopacity="1"
     objecttolerance="10"
     gridtolerance="10"
     guidetolerance="10"
     inkscape:pageopacity="0"
     inkscape:pageshadow="2"
     inkscape:window-width="1495"
     inkscape:window-height="929"
     id="namedview34"
     showgrid="false"
     inkscape:zoom="1"
     inkscape:cx="239.3968"
     inkscape:cy="33.172633"
     inkscape:window-x="0"
     inkscape:window-y="0"
     inkscape:window-maximized="0"
     inkscape:current-layer="svg32" />
  <path
     inkscape:connector-curvature="0"
     style="fill:#8b4513;stroke:#000000;stroke-width:15.11811066;stroke-miterlimit:4;stroke-dasharray:none;fill-opacity:1"
     id="path2"
     d="M 171.75625,356.55373 C 113.20135,334.41408 68.287182,284.12334 50.011001,220.23462 45.537264,204.5956 45.488665,203.87538 44.822839,143.34323 l -0.672111,-61.104516 8.850515,-4.049987 c 4.867785,-2.227488 37.40225,-16.691903 72.298807,-32.143135 l 63.44828,-28.093147 72.52189,31.761854 72.52187,31.761858 -0.77198,60.654893 c -0.74755,58.73574 -0.90563,61.12812 -4.99625,75.6109 -5.78132,20.46877 -8.37349,27.38767 -15.87848,42.38216 -21.25801,42.47221 -59.23033,77.65129 -102.36533,94.83533 -18.24888,7.26995 -22.53726,7.44975 -38.0238,1.59429 z" />
  <g
     id="g834">
    <path
       style="fill:#daa520;fill-opacity:1;stroke:#000000;stroke-width:13.84192467;stroke-miterlimit:4;stroke-dasharray:none;stroke-dashoffset:0;stroke-opacity:1"
       d="m 189.89257,11.884766 c -11.9578,18.227768 -22.00551,37.399868 -32.92969,56.099618 0.007,59.967916 0.0139,119.936386 0.0195,179.904296 H 123.7402 v 30.40235 h 49.91016 v 49.95507 a 25.035537,25.035537 0 0 0 -2.37695,2.05469 25.035537,25.035537 0 0 0 0,35.40625 25.035537,25.035537 0 0 0 35.40625,0 25.035537,25.035537 0 0 0 0,-35.40625 25.035537,25.035537 0 0 0 -2.37696,-2.06445 v -49.94531 h 49.91016 v -30.40235 h -33.23633 c -0.0568,-60.1249 -0.1123,-120.25009 -0.16797,-180.374997 C 210.5636,48.954665 201.03224,30.172506 189.89257,11.884766 Z"
       id="path16"
       inkscape:connector-curvature="0" />
    <rect
       style="fill:none;fill-opacity:1;stroke:#000000;stroke-width:4.57428551;stroke-linejoin:round;stroke-miterlimit:4;stroke-dasharray:none;stroke-dashoffset:0;stroke-opacity:1;paint-order:fill markers stroke"
       id="rect825"
       width="122.23744"
       height="21.125715"
       x="127.63457"
       y="252.5399" />
    <circle
       r="20.737413"
       cy="348.60275"
       cx="189.05"
       id="path827"
       style="fill:none;fill-opacity:0.3872549;stroke:#000000;stroke-width:5.22330709;stroke-linejoin:round;stroke-miterlimit:4;stroke-dasharray:none;stroke-dashoffset:0;stroke-opacity:1;paint-order:fill markers stroke" />
  </g>
</svg>
