<svg enable-background="new 0 0 1000 1000" height="100mm" viewBox="0 0 377.95275 377.95275" width="100mm" xmlns="http://www.w3.org/2000/svg"><g stroke="#000"><path d="m171.75625 356.55373c-58.5549-22.13965-103.469068-72.43039-121.745249-136.31911-4.473737-15.63902-4.522336-16.35924-5.188162-76.89139l-.672111-61.104516 8.850515-4.049987c4.867785-2.227488 37.40225-16.691903 72.298807-32.143135l63.44828-28.093147 72.52189 31.761854 72.52187 31.761858-.77198 60.654893c-.74755 58.73574-.90563 61.12812-4.99625 75.6109-5.78132 20.46877-8.37349 27.38767-15.87848 42.38216-21.25801 42.47221-59.23033 77.65129-102.36533 94.83533-18.24888 7.26995-22.53726 7.44975-38.0238 1.59429z" fill="#5d536c" stroke-width="15.118111"/><g stroke-width="22.677166" transform="matrix(.70710678 .70710678 -.70710678 .70710678 183.952553 -95.347988)"><path d="m176.76498 183.37302h24.422794v123.71547h-24.422794z" fill="#784421"/><path d="m124.91659 108.50314h128.11958v72.067261h-128.11958z" fill="#808080"/></g></g></svg>