<svg enable-background="new 0 0 1000 1000" height="100mm" viewBox="0 0 377.95275 377.95275" width="100mm" xmlns="http://www.w3.org/2000/svg"><path d="m171.75625 356.55373c-58.5549-22.13965-103.469068-72.43039-121.745249-136.31911-4.473737-15.63902-4.522336-16.35924-5.188162-76.89139l-.672111-61.104516 8.850515-4.049987c4.867785-2.227488 37.40225-16.691903 72.298807-32.143135l63.44828-28.093147 72.52189 31.761854 72.52187 31.761858-.77198 60.654893c-.74755 58.73574-.90563 61.12812-4.99625 75.6109-5.78132 20.46877-8.37349 27.38767-15.87848 42.38216-21.25801 42.47221-59.23033 77.65129-102.36533 94.83533-18.24888 7.26995-22.53726 7.44975-38.0238 1.59429z" fill="#00a" stroke="#000" stroke-width="15.118111"/><path d="m257.00788 183.74139 21.42249 73.25814-131.42677 35.2157-26.05872-108.47384z" fill="#5500d4"/><path d="m136.02982 105.23082 58.4119-15.651421 10.69793 39.925201 41.63658 9.36009 31.65414 118.13484-131.42677 35.2157-31.65414-118.13485 31.37829-28.92436z" style="fill:#fff;fill-opacity:.308824;stroke:#fff;stroke-width:15.118111;stroke-linecap:round;stroke-linejoin:round"/></svg>