<svg enable-background="new 0 0 1000 1000" height="100mm" viewBox="0 0 377.95275 377.95275" width="100mm" xmlns="http://www.w3.org/2000/svg"><g stroke="#000"><path d="m171.75625 356.55373c-58.5549-22.13965-103.469068-72.43039-121.745249-136.31911-4.473737-15.63902-4.522336-16.35924-5.188162-76.89139l-.672111-61.104516 8.850515-4.049987c4.867785-2.227488 37.40225-16.691903 72.298807-32.143135l63.44828-28.093147 72.52189 31.761854 72.52187 31.761858-.77198 60.654893c-.74755 58.73574-.90563 61.12812-4.99625 75.6109-5.78132 20.46877-8.37349 27.38767-15.87848 42.38216-21.25801 42.47221-59.23033 77.65129-102.36533 94.83533-18.24888 7.26995-22.53726 7.44975-38.0238 1.59429z" fill="#8b4513" stroke-width="15.118111"/><g transform="matrix(-.70710678 .70710678 .70710678 .70710678 188.02215 -79.392997)"><path d="m189.89257 11.884766c-11.9578 18.227768-22.00551 37.399868-32.92969 56.099618.007 59.967916.0139 119.936386.0195 179.904296h-33.24218v30.40235h49.91016v49.95507a25.035537 25.035537 0 0 0 -2.37695 2.05469 25.035537 25.035537 0 0 0 0 35.40625 25.035537 25.035537 0 0 0 35.40625 0 25.035537 25.035537 0 0 0 0-35.40625 25.035537 25.035537 0 0 0 -2.37696-2.06445v-49.94531h49.91016v-30.40235h-33.23633c-.0568-60.1249-.1123-120.25009-.16797-180.374997-10.24496-18.559018-19.77632-37.341177-30.91599-55.628917z" fill="#ccc" stroke-width="13.841925"/><g fill="none" stroke-linejoin="round"><path d="m127.63457 252.5399h122.23744v21.125715h-122.23744z" stroke-width="4.574286"/><circle cx="189.05" cy="348.60275" r="20.737413" stroke-width="5.223307"/></g></g><g transform="matrix(.70710678 .70710678 -.70710678 .70710678 197.249011 -79.392997)"><path d="m189.89257 11.884766c-11.9578 18.227768-22.00551 37.399868-32.92969 56.099618.007 59.967916.0139 119.936386.0195 179.904296h-33.24218v30.40235h49.91016v49.95507a25.035537 25.035537 0 0 0 -2.37695 2.05469 25.035537 25.035537 0 0 0 0 35.40625 25.035537 25.035537 0 0 0 35.40625 0 25.035537 25.035537 0 0 0 0-35.40625 25.035537 25.035537 0 0 0 -2.37696-2.06445v-49.94531h49.91016v-30.40235h-33.23633c-.0568-60.1249-.1123-120.25009-.16797-180.374997-10.24496-18.559018-19.77632-37.341177-30.91599-55.628917z" fill="#ccc" stroke-width="13.841925"/><g fill="none" stroke-linejoin="round"><path d="m127.63457 252.5399h122.23744v21.125715h-122.23744z" stroke-width="4.574286"/><circle cx="189.05" cy="348.60275" r="20.737413" stroke-width="5.223307"/></g></g></g></svg>