<svg enable-background="new 0 0 1000 1000" height="100mm" viewBox="0 0 377.95275 377.95275" width="100mm" xmlns="http://www.w3.org/2000/svg"><path d="m171.75625 356.55373c-58.5549-22.13965-103.469068-72.43039-121.745249-136.31911-4.473737-15.63902-4.522336-16.35924-5.188162-76.89139l-.672111-61.104516 8.850515-4.049987c4.867785-2.227488 37.40225-16.691903 72.298807-32.143135l63.44828-28.093147 72.52189 31.761854 72.52187 31.761858-.77198 60.654893c-.74755 58.73574-.90563 61.12812-4.99625 75.6109-5.78132 20.46877-8.37349 27.38767-15.87848 42.38216-21.25801 42.47221-59.23033 77.65129-102.36533 94.83533-18.24888 7.26995-22.53726 7.44975-38.0238 1.59429z" fill="#d40000" stroke="#000" stroke-width="15.118111"/><circle cx="188.97638" cy="188.97638" fill="none" r="81.69265" stroke="#fff" stroke-width="60.472441"/><g stroke="#000"><g transform="matrix(.70710678 .70710678 -.70710678 .70710678 188.846615 -89.836959)"><path d="m19.190086 165.29333h173.20949v14.469329h-173.20949z" fill="#784421" stroke-width="15.118111"/><g fill="#d40000" stroke-width="7.559055"><path d="m13.5 161.45276-17.499999-17.5h51.999999l17.499999 17.5z"/><path d="m13.5 183.95276-17.499999 17.5h51.999999l17.499999-17.5z"/></g></g><g transform="matrix(.90103231 .43375198 -.43375198 .90103231 100.845586 -26.264204)"><path d="m19.190086 165.29333h173.20949v14.469329h-173.20949z" fill="#784421" stroke-width="15.118111"/><g fill="#d40000" stroke-width="7.559055"><path d="m13.5 161.45276-17.499999-17.5h51.999999l17.499999 17.5z"/><path d="m13.5 183.95276-17.499999 17.5h51.999999l17.499999-17.5z"/></g></g></g></svg>