<svg enable-background="new 0 0 1000 1000" height="100mm" viewBox="0 0 377.95275 377.95275" width="100mm" xmlns="http://www.w3.org/2000/svg"><g stroke="#000"><path d="m169.91355 99.354738v-66.002906l28.00651.000003h5.69203 4.42711v69.141115h-37.94678z" fill="#edbf36" stroke-width="15.11811"/><path d="m187.72204 366.12044c-15.25585-18.28774-28.30943-37.069-42.34004-55.62802-.0793-62.61839-.15962-125.23678-.24075-187.85517 29.21778-.019 58.43557-.0376 87.65335-.0557.008 62.47962.017 124.95924.0263 187.43887-14.96073 18.69975-28.72266 37.87229-45.09895 56.10006z" fill="#ccc" stroke-linecap="square" stroke-width="15.118111"/><path d="m124.10574 123.21902h129.74127v-30.771358h-129.74127z" fill="#edbf36" stroke-linecap="square" stroke-width="15.118111"/><circle cx="156.64075" cy="110.6122" fill="#edbf36" r="25.035538" stroke-linecap="square" stroke-width="15.118111" transform="matrix(.70710678 .70710678 .70710678 -.70710678 0 0)"/></g><path d="m187 131.95276 1 220.5 36-45v-175z" fill="#fff" fill-opacity=".52451"/></svg>