<svg height="72mm" viewBox="0 0 100 72" width="100mm" xmlns="http://www.w3.org/2000/svg"><g transform="translate(0 -212.250102)"><path d="m37.794922 66.142578a28.346457 28.346457 0 0 0 -28.3457032 28.345703 28.346457 28.346457 0 0 0 28.3457032 28.345699 28.346457 28.346457 0 0 0 4.658203-.39257l33.136719 198.81836h226.771486l33.14258-198.8418a28.346457 28.346457 0 0 0 4.65429.41601 28.346457 28.346457 0 0 0 28.34571-28.345699 28.346457 28.346457 0 0 0 -28.34571-28.345703 28.346457 28.346457 0 0 0 -28.34765 28.345703 28.346457 28.346457 0 0 0 8.31445 20.031249l-55.55859 55.55859-55.5586-55.55859a28.346457 28.346457 0 0 0 8.31446-20.031249 28.346457 28.346457 0 0 0 -28.34571-28.345703 28.346457 28.346457 0 0 0 -28.3457 28.345703 28.346457 28.346457 0 0 0 8.31445 20.031249l-55.55859 55.55859-55.560548-55.55859a28.346457 28.346457 0 0 0 8.316406-20.031249 28.346457 28.346457 0 0 0 -28.347656-28.345703z" fill="#ffd42a" stroke="#000" stroke-linejoin="round" stroke-width="15.118111" transform="matrix(.26458333 0 0 .26458333 0 197)"/><g fill="#fea"><path d="m17.34954 242 8.162037 36.42813h48.972221l8.162037-36.42813-16.324074 12.14271-16.324074-12.14271-16.324073 12.14271z"/><circle cx="90" cy="-224" r="3" transform="scale(1 -1)"/><circle cx="50" cy="-224" r="3" transform="scale(1 -1)"/><circle cx="10" cy="-224" r="3" transform="scale(1 -1)"/></g></g></svg>