<svg height="260mm" viewBox="0 0 260 260" width="260mm" xmlns="http://www.w3.org/2000/svg"><g transform="translate(0 -37)"><path d="m199.73661 225.96429-5.59995 44.53993-42.3769-14.81096-30.71037 32.742-25.577967-36.89084-44.090472 8.43773.990881-44.87966-40.629516-19.08947 27.181243-35.72598-21.649461-39.32513 42.989293-12.9262 5.599951-44.539934 42.376898 14.810962 30.71037-32.741996 25.57796 36.890834 44.09048-8.437727-.99088 44.879661 40.62951 19.08947-27.18124 35.72598 21.64946 39.32513z" fill="#fc0" fill-opacity=".715686" stroke="#010000" stroke-width="10"/><g stroke-width=".264583" transform="matrix(1.0385916 -.54876573 .37355512 1.5257279 -33.040597 -4.973982)"><path d="m41.462796 129.9833h10.666015l13.468946 25.39999v-25.39999h9.05371v37.03339h-10.666015l-13.468945-25.4v25.4h-9.053711z"/><path d="m84.027638 129.9833h25.772072v7.21816h-16.222267v6.8957h15.254887v7.21817h-15.254887v8.4832h16.767967v7.21816h-26.317772z"/><path d="m115.60401 129.9833h9.15292l6.39961 26.91308 6.35-26.91308h9.20254l6.35 26.91308 6.39961-26.91308h9.07852l-8.73125 37.03339h-11.01328l-6.72207-28.15332-6.64766 28.15332h-11.01328z"/></g></g></svg>