<svg enable-background="new 0 0 1000 1000" height="100mm" viewBox="0 0 377.95275 377.95275" width="100mm" xmlns="http://www.w3.org/2000/svg"><g stroke="#000"><path d="m171.75625 356.56681c-58.5549-22.13965-103.469068-72.43039-121.745249-136.31911-4.473737-15.63902-4.522336-16.35924-5.188162-76.89139l-.672111-61.104512 8.850515-4.049987c4.867785-2.227488 37.40225-16.691903 72.298807-32.143135l63.44828-28.093147 72.52189 31.761854 72.52187 31.761858-.77198 60.654889c-.74755 58.73574-.90563 61.12812-4.99625 75.6109-5.78132 20.46877-8.37349 27.38767-15.87848 42.38216-21.25801 42.47221-59.23033 77.65129-102.36533 94.83533-18.24888 7.26995-22.53726 7.44975-38.0238 1.59429z" fill="#ffd42a" stroke-width="18.897638"/><g stroke-width="62.72316"><g transform="matrix(.25565002 -.25565002 .25565002 .25565002 -44.788895 177.84516)"><path d="m468.07053 778.98769v209.32689l46.90977-.00001h9.53391 7.41524l.00001-219.27966h-63.55933z" fill="#806600"/><g stroke-linecap="square"><path d="m497.89741-67.054378c-25.55295 57.999196-47.41714 117.563601-70.91784 176.423148-.13299 198.59297-.26741 397.18593-.40327 595.77889 48.9386.0604 97.8772.1193 146.8158.17678.0133-198.15286.028-396.30572.0442-594.45859-25.05862-59.30588-48.10927-120.1112225-75.53889-177.920228z" fill="#aaa"/><path d="m291.01398 684.78284h417.97202v65.916733h-417.97202z" fill="#ffd42a"/><circle cx="-352.80383" cy="1059.9106" fill="#ffd42a" r="79.399704" transform="matrix(.70710678 -.70710678 .70710678 .70710678 0 0)"/></g></g><g transform="matrix(-.25565002 -.25565002 -.25565002 .25565002 422.74166 177.84516)"><path d="m468.07053 778.98769v209.32689l46.90977-.00001h9.53391 7.41524l.00001-219.27966h-63.55933z" fill="#806600"/><g stroke-linecap="square"><path d="m497.89741-67.054378c-25.55295 57.999196-47.41714 117.563601-70.91784 176.423148-.13299 198.59297-.26741 397.18593-.40327 595.77889 48.9386.0604 97.8772.1193 146.8158.17678.0133-198.15286.028-396.30572.0442-594.45859-25.05862-59.30588-48.10927-120.1112225-75.53889-177.920228z" fill="#aaa"/><path d="m291.01398 684.78284h417.97202v65.916733h-417.97202z" fill="#ffd42a"/><circle cx="-352.80383" cy="1059.9106" fill="#ffd42a" r="79.399704" transform="matrix(.70710678 -.70710678 .70710678 .70710678 0 0)"/></g></g></g></g></svg>