<svg height="72mm" viewBox="0 0 64 72" width="64mm" xmlns="http://www.w3.org/2000/svg"><g transform="translate(-18 -195.14824)"><path d="m50 261-24 4v-20.12292l24 .1323z" fill="#90a7bb"/><path d="m49.812503 261 24 4v-20.12292l-24 .1323z" fill="#be6767"/><path d="m73.999999 265v-20.12292h-47.999999v20.12292l24-4z" fill="none" stroke="#000" stroke-width="3.175"/><g transform="matrix(-.70710678 -.70710678 .70710678 -.70710678 0 0)"><ellipse cx="-195.86859" cy="-125.15791" fill="#c4c4c4" rx="30.000002" ry="30" stroke="#000" stroke-width="3.175"/><circle cx="-195.86858" cy="-125.1579" fill="#fff" fill-opacity=".49537" r="24"/></g></g><path d="m48.338021 42.871411-11.320885-11.176565 11.164312-11.275961-5.033468-5.03347-11.180656 11.324971-11.314076-11.168398-4.991269 4.991263 11.329057 11.218775-11.172485 11.318163 4.991268 4.991268 11.214691-11.324971 11.280042 11.168398z" fill="#e30000"/></svg>